<svg viewBox="0 0 36 24" fill="none" xmlns="http://www.w3.org/2000/svg">
<g clip-path="url(#clip0_22746_31762)">
<path d="M4 0.5H32C33.933 0.5 35.5 2.067 35.5 4V20C35.5 21.933 33.933 23.5 32 23.5H4C2.067 23.5 0.5 21.933 0.5 20V4C0.5 2.067 2.067 0.5 4 0.5Z" fill="white" stroke="#E0E0E0"/>
<path fill-rule="evenodd" clip-rule="evenodd" d="M11.3333 18.6667C11.3333 18.2985 11.6318 18 12 18H24C24.3682 18 24.6666 18.2985 24.6666 18.6667C24.6666 19.0349 24.3682 19.3333 24 19.3333H12C11.6318 19.3333 11.3333 19.0349 11.3333 18.6667Z" fill="#666666"/>
<path fill-rule="evenodd" clip-rule="evenodd" d="M14 10.6667C14.3682 10.6667 14.6666 10.9651 14.6666 11.3333V16C14.6666 16.3682 14.3682 16.6667 14 16.6667C13.6318 16.6667 13.3333 16.3682 13.3333 16V11.3333C13.3333 10.9651 13.6318 10.6667 14 10.6667Z" fill="#666666"/>
<path fill-rule="evenodd" clip-rule="evenodd" d="M16.6667 10.6667C17.0349 10.6667 17.3333 10.9651 17.3333 11.3333V16C17.3333 16.3682 17.0349 16.6667 16.6667 16.6667C16.2985 16.6667 16 16.3682 16 16V11.3333C16 10.9651 16.2985 10.6667 16.6667 10.6667Z" fill="#666666"/>
<path fill-rule="evenodd" clip-rule="evenodd" d="M19.3334 10.6667C19.7015 10.6667 20 10.9651 20 11.3333V16C20 16.3682 19.7015 16.6667 19.3334 16.6667C18.9652 16.6667 18.6667 16.3682 18.6667 16V11.3333C18.6667 10.9651 18.9652 10.6667 19.3334 10.6667Z" fill="#666666"/>
<path fill-rule="evenodd" clip-rule="evenodd" d="M22 10.6667C22.3682 10.6667 22.6666 10.9651 22.6666 11.3333V16C22.6666 16.3682 22.3682 16.6667 22 16.6667C21.6318 16.6667 21.3333 16.3682 21.3333 16V11.3333C21.3333 10.9651 21.6318 10.6667 22 10.6667Z" fill="#666666"/>
<path fill-rule="evenodd" clip-rule="evenodd" d="M17.6467 4.76801C17.8628 4.63289 18.1371 4.63289 18.3533 4.76801L23.6867 8.10134C23.9389 8.25897 24.0562 8.56458 23.9742 8.85046C23.8922 9.13634 23.6307 9.33334 23.3333 9.33334H12.6667C12.3693 9.33334 12.1078 9.13634 12.0258 8.85046C11.9438 8.56458 12.0611 8.25897 12.3133 8.10134L17.6467 4.76801ZM14.9912 8.00001H21.0088L18 6.1195L14.9912 8.00001Z" fill="#666666"/>
</g>
<rect x="0.5" y="0.5" width="35" height="23" rx="3.5" stroke="#E0E0E0"/>
<defs>
<clipPath id="clip0_22746_31762">
<rect width="36" height="24" rx="4" fill="white"/>
</clipPath>
</defs>
</svg>
