<svg id="Layer_1" data-name="Layer 1" xmlns="http://www.w3.org/2000/svg" viewBox="0 0 124.98 78.15">
  <title>icon-payment-eway</title>
  <g>
    <rect x="-0.01" y="0.01" width="125" height="78.13" rx="4.17" ry="4.17" style="fill: #ffb92c"/>
    <g>
      <g>
        <path d="M54.46,33.48h5.42v.59H58.15l3.63,10.41h.06L64,38.3l-1.41-4.23H60.91v-.59h6.72v.59H65.09l3.58,10.41h0L72.4,34.07H70.18v-.59h3.63v.59h-.59L68.45,47.36H67l-2.71-8h-.06l-2.81,8H60.1L55.49,34.07h-1Z" style="fill: #231f20"/>
        <path d="M74.4,38.12V33.73a17.29,17.29,0,0,1,2.06-.7,8,8,0,0,1,2.09-.26,6.8,6.8,0,0,1,2.19.31,5,5,0,0,1,1.53.8A2.92,2.92,0,0,1,83.16,35a3,3,0,0,1,.29,1.25V46.38h1.3V47H81.08V44.58H81a4.4,4.4,0,0,1-1.57,2.05,4.27,4.27,0,0,1-2.55.77,4.4,4.4,0,0,1-3-1,3.48,3.48,0,0,1-1.14-2.78,3.78,3.78,0,0,1,.42-1.91,3.25,3.25,0,0,1,1.13-1.14A5.33,5.33,0,0,1,75.9,40c.59-.14,1.19-.26,1.81-.37s1.22-.23,1.81-.37a5.39,5.39,0,0,0,1.56-.6V35.77a2.37,2.37,0,0,0-.64-1.86,2.55,2.55,0,0,0-1.73-.56,2.81,2.81,0,0,0-1.19.22,2.21,2.21,0,0,0-.89.75,6.69,6.69,0,0,0-.77,1.46c-.25.62-.55,1.4-.87,2.34Zm6.68,1.21a9,9,0,0,1-2.16.73,8.59,8.59,0,0,0-1.78.5,2.6,2.6,0,0,0-1.2,1,3.84,3.84,0,0,0-.45,2.12A3.28,3.28,0,0,0,76,45.81a2.08,2.08,0,0,0,1.65.63A3,3,0,0,0,80.15,45a6.33,6.33,0,0,0,.93-3.62Z" style="fill: #231f20"/>
        <path d="M83.22,33.47H89v.59H87l4,9.46,3.26-9.46H91.86v-.59h4.33v.59H95L90,48.34a13.85,13.85,0,0,1-.74,1.85,4.51,4.51,0,0,1-.78,1.09,2.11,2.11,0,0,1-.87.53,3.61,3.61,0,0,1-1,.14,2.76,2.76,0,0,1-2.06-.64V47.08h.58l.74,2.63a3.29,3.29,0,0,0,.6,1.35.93.93,0,0,0,.64.3,1.16,1.16,0,0,0,.77-.32,3.56,3.56,0,0,0,.7-.9,10,10,0,0,0,.61-1.34c.18-.52.36-1.06.53-1.64l-5.44-13.1h-1Z" style="fill: #231f20"/>
        <g id="Shape_2" data-name="Shape 2">
          <path d="M40.3,21.67a15,15,0,1,0,15,15A15,15,0,0,0,40.3,21.67Z" style="fill: #231f20;fill-rule: evenodd"/>
        </g>
        <path id="e_Clipping_Path" data-name="e Clipping Path" d="M43.07,42.43a4.19,4.19,0,0,1-2.41.42,4.33,4.33,0,0,1-3.41-1.38c-.74-.79-1.11-1.3-1.13-3.38H50.63c0-.39,0-1.32,0-1.51a11.53,11.53,0,0,0-2.87-7.9c-1.73-1.76-4.53-2.53-7.25-2.53A10.88,10.88,0,0,0,33,28.89a11.2,11.2,0,0,0-2.78,7.89,11.34,11.34,0,0,0,2.88,7.84c1.74,1.73,4.65,2.5,7.63,2.5A11.36,11.36,0,0,0,47,45.43a9,9,0,0,0,3.41-4.74l-5.88-.08A3.37,3.37,0,0,1,43.07,42.43ZM37.58,31.6a4,4,0,0,1,2.8-1A4.49,4.49,0,0,1,43.6,32a3.5,3.5,0,0,1,1,2.63H36.32A3.71,3.71,0,0,1,37.58,31.6Z" style="fill: #fff"/>
        <g id="Shape_1" data-name="Shape 1">
          <path d="M61.62,49.61c-15.71.15-29.68,2.46-38.87,6.87,0,0,9.7-3.29,38.89-3.29,15.64,0,21,.2,38.85,3.17C100.65,56.38,86.33,49.37,61.62,49.61Z" style="fill: #231f20;fill-rule: evenodd"/>
        </g>
      </g>
      <g>
        <path d="M97.89,33.94h-.76v-.47h2.08v.47h-.76V36h-.56Z" style="fill: #231f20"/>
        <path d="M99.5,33.47h.78l.6,1.75h0l.56-1.75h.79V36h-.52v-1.8h0l-.62,1.8h-.43L100,34.23h0V36H99.5Z" style="fill: #231f20"/>
      </g>
    </g>
  </g>
</svg>
