<svg id="Layer_1" data-name="Layer 1" xmlns="http://www.w3.org/2000/svg" viewBox="0 0 124.98 78.15">
  <title>icon-payment-solo</title>
  <g>
    <rect x="-0.01" y="0.01" width="125" height="78.13" rx="4.17" ry="4.17" style="fill: #c92f92"/>
    <g>
      <path d="M67.38,31.74A9.34,9.34,0,0,1,51.73,41.93l2.68-1.8a6.07,6.07,0,0,0,10.17-6.62Z" style="fill: #fff"/>
      <path d="M73.62,27.78A9.33,9.33,0,1,0,58,38l2.73-1.73a6.06,6.06,0,0,1,10.15-6.63Z"/>
      <path d="M44.76,34.49A17.73,17.73,0,1,1,62.49,52.22,17.73,17.73,0,0,1,44.76,34.49ZM62.49,51A16.49,16.49,0,1,0,46,34.49,16.49,16.49,0,0,0,62.49,51Z" style="fill: #fff"/>
      <path d="M64.53,56h1.13l-.93,4.2h3l-.22,1H63.38Z" style="fill: #fff"/>
      <path d="M51.75,59.57a2.52,2.52,0,0,0,2.07.94c1,0,1.31-.3,1.38-.76,0-.19.1-.61-.71-.7l-1.3-.14c-1.38-.19-1.6-.75-1.57-1.44,0-.94,1.22-1.68,2.49-1.69a3,3,0,0,1,2.52.83l-.79.48a2.47,2.47,0,0,0-1.93-.51c-.49,0-1.14.22-1.25.69s0,.55.65.63l1.65.21a1.49,1.49,0,0,1,1.33,1.42c-.09.89-.87,1.94-2.73,1.85a3,3,0,0,1-2.65-1.32Z" style="fill: #fff"/>
      <path d="M57.25,58.54a3.35,3.35,0,0,1,3.21-2.81,2.38,2.38,0,0,1,2.41,2.81,3.35,3.35,0,0,1-3.21,2.81A2.38,2.38,0,0,1,57.25,58.54Zm2.55,1.83a2.17,2.17,0,0,0,2.08-1.83,1.53,1.53,0,0,0-1.56-1.82,2.18,2.18,0,0,0-2.09,1.82A1.55,1.55,0,0,0,59.8,60.37Z" style="fill: #fff"/>
      <path d="M68.45,58.54a3.35,3.35,0,0,1,3.21-2.81,2.37,2.37,0,0,1,2.4,2.81,3.35,3.35,0,0,1-3.21,2.81A2.37,2.37,0,0,1,68.45,58.54ZM71,60.37a2.18,2.18,0,0,0,2.09-1.83,1.54,1.54,0,0,0-1.56-1.82,2.17,2.17,0,0,0-2.09,1.82A1.55,1.55,0,0,0,71,60.37Z" style="fill: #fff"/>
    </g>
  </g>
</svg>
